<?xml version="1.0" encoding="utf-8"?>
<!-- Generator: Adobe Illustrator 24.1.0, SVG Export Plug-In . SVG Version: 6.00 Build 0)  -->
<svg version="1.1" id="Capa_1" xmlns="http://www.w3.org/2000/svg" xmlns:xlink="http://www.w3.org/1999/xlink" x="0px" y="0px"
	 viewBox="0 0 758.8 283.7" style="enable-background:new 0 0 758.8 283.7;" xml:space="preserve">
<style type="text/css">
	.st0{fill-rule:evenodd;clip-rule:evenodd;fill:#1AACFF;}
	.st1{fill:#1AACFF;}
	.st2{fill:#FF35A5;}
</style>
<path class="st0" d="M114.2,0c29.5,0,56.4,11.2,76.7,29.6l-32.1,32c-12-10.2-27.6-16.4-44.6-16.4c-38.1,0-68.9,30.9-68.9,68.9
	c0,38.1,30.9,69,68.9,69c18.7,0,35.7-7.4,48.1-19.5l-63.8,63.7C42.9,219.7,0,171.9,0,114.2C0,51.1,51.1,0,114.2,0L114.2,0z
	 M163.8,92.6h38.8v38.8v38.4l-38.8,38.8v-46.6l0,0l-0.2,0.3l0.2-0.2v-30.6H86.6l38.8-38.8H163.8L163.8,92.6z"/>
<g>
	<path class="st1" d="M316.3,160.5c-6.6,20.2-24.8,32.8-48.6,32.8c-34.1,0-52.1-25-52.1-53c0-27.7,17.6-53,51.7-53
		c31,0,50.8,23.5,50.8,49.7c0,3.3-0.6,6.6-0.9,10.1h-72.8c2.6,11.7,11.2,22.4,26.2,22.4c7.5,0,15.2-2.6,18.9-9H316.3z M289,125.7
		c-2.8-8.1-9-14.5-20-14.5c-11.2,0-18.5,6.4-22.2,14.5H289z"/>
	<path class="st1" d="M330.6,90.2h27.7v9.5c7.2-7.9,17.2-12.8,31-12.8c26.8,0,37.2,19.3,37.2,40v63.5h-27.7v-56.1
		c0-11.6-4.2-23.1-18.7-23.1c-16.3,0-21.8,12.8-21.8,23.1v56.1h-27.7V90.2z"/>
	<path class="st1" d="M460,90.2l21.1,64.6l21.1-64.6h28.1l-36.7,112.5c-5.5,16.5-7.9,26.6-31.6,26.6h-20.5V208h11.2
		c9,0,12.1-4.6,14.3-10.3L431.7,90.2H460z"/>
	<path class="st1" d="M538.2,90.2h27.7v56.1c0,11.6,4.2,23.1,18.9,23.1c16.1,0,21.7-12.8,21.7-23.1V90.2h27.7v100.2h-27.7v-9.5
		c-7.2,7.9-17.2,12.8-30.8,12.8c-27,0-37.4-19.3-37.4-40V90.2z"/>
	<path class="st1" d="M728.6,160.5c0,22.8-20.7,33.2-40.9,33.2c-24.4,0-38.5-12.3-40.4-32.5h23.9c0.9,8.3,6.2,11.2,17.1,11.2
		c7.7,0,13.6-3.1,13.6-7.9c0-6.8-6.6-9.2-15.2-11.7c-16.1-5-38.5-8.6-38.5-32.8c0-22.4,19.8-33,39.8-33c26.8,0,36.7,14.9,37.8,32.5
		h-23.5c-0.7-7.9-5.3-11.2-14.7-11.2c-7.3,0-12.7,3.3-12.7,7.9c0,6.1,6.6,9.4,15.2,11.7C703.1,131.5,728.6,135.9,728.6,160.5z"/>
</g>
<g>
	<path class="st2" d="M513.3,282.1c-6.6-2.2-11.9-6.3-13.7-12l7.1-2.5c1.5,5.2,8.5,8.7,16.6,8.7c2.9,0,5.4-0.5,7.9-1.3
		c4.8-1.8,7.9-4.9,7.9-9.1c0-2.2-0.7-3.7-2.2-5.1c-3.1-2.9-8.2-4.4-13.6-5.3c-4.4-0.7-8.3-1.7-11.6-2.9c-7-2.5-11.5-7-11.5-14.8
		c0-3.6,1.1-6.8,3.3-9.5c4.4-5.2,11.8-8.3,20-8.3c10.9,0,21,5.2,23.8,13.6l-7.2,2.5c-1.4-5.3-8.5-8.7-16.6-8.7
		c-2.8,0-5.4,0.4-7.8,1.3c-4.8,1.8-7.9,4.9-7.9,9.1c0,2.5,0.7,4.2,2,5.4c2.6,2.7,7.6,3.7,13.8,4.8c4,0.6,7.8,1.7,11.4,3.1
		c7,2.9,11.8,7.7,11.8,14.7c0,3.6-1.1,6.8-3.3,9.4c-4.4,5.3-11.8,8.3-20,8.3C519.9,283.7,516.6,283.2,513.3,282.1z"/>
	<path class="st2" d="M553.1,260.4c0-13.6,9-23.3,22.8-23.3c10.4,0.1,18.1,5.7,21.2,14.2l-7,1.6c-2.5-5.3-7.5-8.6-14.2-8.6v0
		c-9.6,0-15.8,6.6-15.8,16.1c0,9.5,6.2,16.1,15.8,16.1c6.7,0,11.7-3.3,14.2-8.6l7,1.6c-3.1,8.6-10.8,14.2-21.2,14.2
		C562.1,283.7,553.1,273.9,553.1,260.4z"/>
	<path class="st2" d="M604,216.7h7.6V243c3.3-3.7,8.3-6,13.8-6c3.5,0,6.7,0.8,9.6,2.5c5.8,3.2,9.4,9.1,9.4,15.8v27.3h-7.6v-26.1
		c0-6.9-5.4-12.1-12.6-12.1c-2.3,0-4.4,0.5-6.3,1.6c-3.9,2.2-6.3,5.9-6.3,10.5v26.1H604V216.7z"/>
	<path class="st2" d="M649.3,260.4c0-13.6,9-23.3,22.8-23.3c13.7,0,22.8,9.7,22.8,23.3c0,13.5-9.1,23.2-22.8,23.2
		C658.3,283.7,649.3,273.9,649.3,260.4z M672.1,276.5c9.6,0,15.7-6.6,15.7-16.1c0-9.5-6.2-16.1-15.7-16.1c-9.6,0-15.8,6.6-15.8,16.1
		C656.3,269.9,662.5,276.5,672.1,276.5z"/>
	<path class="st2" d="M698.8,260.4c0-13.6,9-23.3,22.8-23.3c13.7,0,22.8,9.7,22.8,23.3c0,13.5-9.1,23.2-22.8,23.2
		C707.9,283.7,698.8,273.9,698.8,260.4z M721.7,276.5c9.6,0,15.7-6.6,15.7-16.1c0-9.5-6.2-16.1-15.7-16.1c-9.6,0-15.8,6.6-15.8,16.1
		C705.9,269.9,712,276.5,721.7,276.5z"/>
	<path class="st2" d="M751.1,216.7h7.6v65.8h-7.6V216.7z"/>
</g>
</svg>
